# xmcd CD database file
# Copyright (C) 1993-1998 Ti Kan
#
# Track frame offsets:
#	150
#	15369
#	28731
#	41214
#	54233
#	75202
#	100375
#	127723
#	142377
#	161522
#	200303
#
# Disc length: 3073 seconds
#
# Revision: 1
# Processed by: cddbd v1.4b41PL1 Copyright (c) Steve Scherf et al.
# Submitted via: NotifyCDPlayer(CDDB) 1.51.3
#
DISCID=840bff0b
DTITLE=Uptown Rhythm Express - Wanted Live
DYEAR=1900
DGENRE=
TTITLE0=Messin with the kid
TTITLE1=Soul Man
TTITLE2=Ain't got you
TTITLE3=Papa's gotta brand new bag
TTITLE4=Straight up
TTITLE5=Someday after awhile
TTITLE6=Mustang Sally
TTITLE7=Sweet sounds of rhythm and blues
TTITLE8=The letter
TTITLE9=Mr. Pitiful - Show me a man - Land of 1000 dances
TTITLE10=Flip flop fly
EXTD=Uptown Rhythm Express is a Blues Brothers cover band from Chicago. 
EXTT0=
EXTT1=
EXTT2=
EXTT3=
EXTT4=
EXTT5=
EXTT6=
EXTT7=
EXTT8=
EXTT9=
EXTT10=
PLAYORDER=
